{"title":"Sniper Trilogy DVDrip English Klam","uid":6357488,"size":4242773976,"categoryP":"video","categoryS":"movies","magnet":"?xt=urn:btih:f954ab6502bac9d4f8ba205d9bb6c253645bc9b9&amp;dn=Sniper+Trilogy+DVDrip+English+Klam&amp;tr=udp%3A%2F%2Ftracker.openbittorrent.com%3A80&amp;tr=udp%3A%2F%2Fopen.demonii.com%3A1337&amp;tr=udp%3A%2F%2Ftracker.coppersurfer.tk%3A6969&amp;tr=udp%3A%2F%2Fexodus.desync.com%3A6969","seeders":0,"leechers":0,"uploader":"Klambake","files":5,"time":1304193687,"description":"Sniper 1993\thttp://www.imdb.com/title/tt0108171\t\n\nTough guy Thomas Beckett is a US Marine working in the Panamanian jungle. His job is to seek out rebels and remove them using his sniper skills. Beckett is notorious for losing his partners on such missions. This time he's accompanied by crack marksman Richard Miller, who's more of an office-type. Together they plan to seek out an important rebel leader, whilst avoiding a rogue marksman who frequents this part of the jungle.\n\nSniper 2 2002\thttp://www.imdb.com/title/tt0338450\t\n\nA former Marine sniper is lured back in on a top-secret mission to take out a Serbian general who is committing atrocities on the Muslim population. His partner in this mission is a death-row convict who has been given the chance to earn his freedom. \n\nSniper 3 2004\thttp://www.imdb.com/title/tt0408196\t\n\nSniper Thomas Beckett (Tom Berenger) is hired by NSA officials, William Avery (Denis Arndt) and Richard Addis ( William Duffy) to perform a covert operation to eliminate a suspected terrorist. The terrorist turns out to be a friend of Beckett's and the real purpose of the mission turns out to be something other than what Beckett was told. \n\nGeneral:\n\nComplete name                    : Sniper Trilogy\\Snipper.avi\nFormat                           : AVI\nFormat/Info                      : Audio Video Interleave\nFile size                        : 1.37 GiB\nDuration                         : 1h 35mn\nOverall bit rate                 : 2 065 Kbps\n\nVideo:\n\nFormat                           : MPEG-4 Visual\nFormat profile                   : Simple@L3\nFormat settings, BVOP            : No\nFormat settings, QPel            : No\nFormat settings, GMC             : No warppoints\nFormat settings, Matrix          : Default (H.263)\nCodec ID                         : XVID\nCodec ID/Hint                    : XviD\nDuration                         : 1h 34mn\nBit rate                         : 1 606 Kbps\nWidth                            : 652 pixels\nHeight                           : 352 pixels\nDisplay aspect ratio             : 1.852\nFrame rate                       : 25.000 fps\nColor space                      : YUV\nChroma subsampling               : 4:2:0\nBit depth                        : 8 bits\nScan type                        : Progressive\nCompression mode                 : Lossy\nBits/(Pixel*Frame)               : 0.280\nStream size                      : 1.07 GiB (78%)\nWriting library                  : XviD 1.1.2 (UTC 2006-11-01)\n\nAudio:\n\nFormat                           : AC-3\nFormat/Info                      : Audio Coding 3\nMode extension                   : CM (complete main)\nCodec ID                         : 2000\nDuration                         : 1h 35mn\nBit rate mode                    : Constant\nBit rate                         : 448 Kbps\nChannel(s)                       : 6 channels\nChannel positions                : Front: L C R, Side: L R, LFE\nSampling rate                    : 48.0 KHz\nBit depth                        : 16 bits\nCompression mode                 : Lossy\nStream size                      : 304 MiB (22%)\nAlignment                        : Aligned on interleaves\nInterleave, duration             : 32 ms (0.80 video frame)\n\n","torrent":{"xt":"urn:btih:f954ab6502bac9d4f8ba205d9bb6c253645bc9b9","amp;dn":"Sniper+Trilogy+DVDrip+English+Klam","amp;tr":["udp%3A%2F%2Ftracker.openbittorrent.com%3A80","udp%3A%2F%2Fopen.demonii.com%3A1337","udp%3A%2F%2Ftracker.coppersurfer.tk%3A6969","udp%3A%2F%2Fexodus.desync.com%3A6969"],"infoHash":"f954ab6502bac9d4f8ba205d9bb6c253645bc9b9","infoHashBuffer":{"type":"Buffer","data":[249,84,171,101,2,186,201,212,248,186,32,93,155,182,194,83,100,91,201,185]},"announce":[],"urlList":[]}}